# xmcd
#
# Track frame offsets:
#	150
#	6219
#	20380
#	30476
#	38181
#	47251
#	54984
#	65903
#	75282
#	93087
#	103509
#	115282
#	132672
#	140990
#	151137
#	160709
#	168530
#	179650
#	189345
#	200575
#
# Disc length: 2757 seconds
#
# Revision: 0
# Processed by: cddbd v1.5.1PL0 Copyright (c) Steve Scherf et al.
# Submitted via: dBpowerAMP V4.0
#
DISCID=060ac314
DTITLE=Don Bosco Orkiestra Centrum - Orkiestra Centrum Mlodziezowege
DYEAR=1900
DGENRE=Instrumental
TTITLE0=Muppet Show Theme
TTITLE1=Feelings
TTITLE2=Rumba Orkiestra Centrum
TTITLE3=Samba Orkiestra Centrum
TTITLE4=Strangers in the Night
TTITLE5=New York, New York
TTITLE6=Doctor Schiwago Theme
TTITLE7=Goralu czy ci nie zal
TTITLE8=Bossa nova Orkiestra Centrum
TTITLE9=Wochenend und Sonnenschein
TTITLE10=Careless Whisper
TTITLE11=Love Story Theme
TTITLE12=When I'm Sixty Four
TTITLE13=And I love her
TTITLE14=Memory
TTITLE15=When the Saints go marching in
TTITLE16=All of me
TTITLE17=How high the Moon
TTITLE18=Love me Tender
TTITLE19=Muppet Show Theme - 2
EXTD=
EXTT0=
EXTT1=
EXTT2=
EXTT3=
EXTT4=
EXTT5=
EXTT6=
EXTT7=
EXTT8=
EXTT9=
EXTT10=
EXTT11=
EXTT12=
EXTT13=
EXTT14=
EXTT15=
EXTT16=
EXTT17=
EXTT18=
EXTT19=
PLAYORDER=
